<svg width="505" height="67" viewBox="0 0 505 67" fill="none" xmlns="http://www.w3.org/2000/svg">
<path d="M336.666 59.9102H168.333V67.0001H336.666V59.9102Z" fill="#38547E"/>
<path d="M194.55 13.4709L189.568 35.6861C189.568 35.8043 189.568 35.8043 189.686 35.8043H194.076C194.194 35.8043 194.194 35.6861 194.194 35.6861L196.211 26.8237C196.211 26.7055 196.33 26.7055 196.33 26.7055H203.685C203.803 26.7055 203.803 26.7055 203.803 26.5873L204.871 23.0424C204.871 22.9242 204.871 22.9242 204.752 22.9242H196.923C196.804 22.9242 196.804 22.806 196.804 22.806L198.109 17.6067C198.109 17.4886 198.228 17.4886 198.228 17.4886H205.82C205.939 17.4886 205.939 17.3704 205.939 17.3704L207.599 13.8254C207.599 13.7073 207.599 13.7073 207.481 13.7073H194.55V13.4709Z" fill="#333333"/>
<path d="M292.063 13.3528H288.267C288.148 13.3528 288.148 13.3528 288.148 13.4709C288.148 13.4709 288.148 13.5891 288.148 13.7073L283.403 35.8043C283.403 35.9225 283.403 35.9224 283.521 35.9224H287.318C287.436 35.9224 287.436 35.8043 287.436 35.8043L292.181 13.5891C292.181 13.3528 292.181 13.3528 292.063 13.3528Z" fill="#333333"/>
<path d="M228.359 22.0971C227.41 20.9154 225.868 20.2064 223.851 20.2064C221.241 20.2064 219.818 21.3881 218.75 22.3334L220.767 13.7073C220.767 13.7073 220.767 13.7073 220.767 13.5891C220.767 13.4709 220.767 13.3528 220.648 13.3528C220.53 13.3528 220.53 13.3528 220.411 13.3528H217.208C216.971 13.3528 216.852 13.3528 216.734 13.7073L213.412 28.5962C213.412 28.8325 213.293 29.187 213.293 29.5415C213.175 30.8413 213.293 32.4956 214.242 33.9136C215.191 35.3316 216.852 36.5133 219.937 36.5133C225.038 36.5133 227.529 33.2046 228.596 30.605C228.715 30.2505 228.834 29.896 228.952 29.5415C229.071 29.3052 229.071 29.0688 229.071 28.8325C229.071 28.7143 229.19 28.478 229.19 28.3598C229.308 27.8872 229.308 27.4145 229.427 26.9418C229.783 24.933 229.308 23.2787 228.359 22.0971ZM225.393 28.2417C224.919 30.4868 223.258 32.6138 220.53 32.6138C218.157 32.6138 217.208 31.0777 217.327 29.0688C217.327 28.8325 217.445 28.5962 217.445 28.2417C217.92 25.9965 219.818 23.8695 222.546 23.8695C223.733 23.8695 224.444 24.224 224.919 24.8149C225.393 25.4057 225.512 26.2329 225.512 27.1782C225.512 27.5327 225.512 27.8872 225.393 28.2417Z" fill="#333333"/>
<path d="M211.87 13.2346C210.446 13.2346 209.26 14.4163 209.023 15.5979C209.023 15.7161 209.023 15.8343 208.904 15.9524C208.904 16.5433 209.023 17.0159 209.379 17.3704C209.735 17.7249 210.209 17.9612 210.921 17.9612C212.345 17.9612 213.531 16.8978 213.887 15.5979C213.887 15.4798 213.887 15.3616 213.887 15.2434C213.887 14.6526 213.768 14.1799 213.412 13.8254C213.056 13.471 212.582 13.2346 211.87 13.2346Z" fill="#333333"/>
<path d="M212.226 20.5608H208.549C208.43 20.5608 208.311 20.679 208.311 20.7971L205.108 35.686C205.108 35.8042 205.108 35.8042 205.227 35.8042H209.023C209.142 35.8042 209.142 35.686 209.26 35.686L212.463 20.679C212.345 20.679 212.345 20.5608 212.226 20.5608Z" fill="#333333"/>
<path d="M245.086 21.8606C244.137 20.7971 242.595 20.2063 240.815 20.2063C236.189 20.2063 232.155 23.3968 231.088 28.2416C230.969 28.7142 230.969 29.1869 230.85 29.5414C230.732 31.5502 231.325 33.2045 232.393 34.3862C233.579 35.5678 235.24 36.1587 237.375 36.1587C239.748 36.1587 242.001 35.3315 244.255 33.2045C244.374 33.0864 244.374 32.9682 244.255 32.85L242.239 30.9594C242.12 30.8412 241.883 30.9594 241.883 30.9594C240.697 32.0229 239.51 32.85 237.731 32.85C235.833 32.85 234.528 31.6684 234.528 29.6596C234.528 29.5414 234.647 29.5414 234.647 29.5414H245.442C245.798 29.5414 245.916 29.4232 245.916 29.1869L246.035 28.3597C246.153 27.6507 246.272 27.0599 246.272 26.4691C246.509 24.5784 246.153 23.0423 245.086 21.8606ZM242.476 26.3509C242.476 26.3509 242.476 26.4691 242.239 26.5872H235.24C235.121 26.5872 235.24 26.3509 235.24 26.3509C236.07 24.4603 237.612 23.2786 239.629 23.2786C240.697 23.2786 241.408 23.5149 241.883 23.9876C242.357 24.4603 242.595 25.1693 242.476 25.9964C242.595 26.1146 242.476 26.2328 242.476 26.3509Z" fill="#333333"/>
<path d="M268.574 20.3245H263.829C263.71 20.3245 263.71 20.3245 263.71 20.3245L264.659 16.3069C264.659 16.0706 264.659 16.0706 264.422 16.0706H260.863C260.626 16.0706 260.507 16.1887 260.507 16.3069C260.507 16.3069 260.507 16.3069 260.507 16.4251L259.677 20.4427L258.965 23.9877L257.423 30.7231C257.305 31.3139 257.186 31.9048 257.186 32.4956C257.067 33.6773 257.305 34.6226 257.898 35.2134C258.609 35.8042 259.677 36.1587 261.338 36.1587C262.168 36.1587 263.473 36.0406 264.422 35.6861C264.541 35.6861 264.541 35.5679 264.541 35.4497L265.253 32.1411C265.253 32.0229 265.134 32.1411 265.134 32.1411L264.897 32.2593C264.422 32.6138 263.473 32.7319 262.88 32.7319C262.168 32.7319 261.812 32.6138 261.575 32.3774C261.338 32.1411 261.219 31.7866 261.338 31.1958C261.338 30.9594 261.338 30.7231 261.457 30.4868L262.88 24.1058C262.88 24.1058 262.88 24.1058 262.999 24.1058H266.913C267.032 24.1058 267.032 23.9877 267.032 23.9877L268.574 20.5609C268.693 20.3245 268.693 20.3245 268.574 20.3245Z" fill="#333333"/>
<path d="M257.542 20.3245H257.304H257.067H256.593H254.339C252.559 20.4426 251.136 21.2698 250.424 22.0969C249 23.6331 248.526 25.9964 248.051 28.1234L246.391 35.686C246.391 35.8042 246.391 35.8042 246.628 35.9223H250.187C250.424 35.9223 250.543 35.8042 250.543 35.686L252.203 27.8871C252.441 27.1781 252.559 26.1146 253.034 25.4056C253.508 24.6966 254.22 24.1058 255.525 24.1058H257.067C257.186 24.1058 257.186 23.9876 257.304 23.8694L257.542 20.3245Z" fill="#333333"/>
<path d="M281.623 21.8606C280.674 20.7971 279.132 20.2063 277.353 20.2063C272.726 20.2063 268.693 23.3968 267.625 28.2416C267.507 28.7142 267.507 29.1869 267.388 29.5414C267.269 31.5502 267.863 33.2045 268.93 34.3862C270.116 35.5678 271.777 36.1587 273.913 36.1587C276.285 36.1587 278.539 35.3315 280.793 33.2045C280.912 33.0864 280.912 32.9682 280.793 32.85L278.776 30.9594C278.658 30.8412 278.42 30.9594 278.42 30.9594C277.234 32.0229 276.048 32.85 274.268 32.85C272.37 32.85 271.065 31.6684 271.065 29.6596C271.065 29.5414 271.184 29.5414 271.184 29.5414H281.979C282.335 29.5414 282.454 29.4232 282.454 29.1869L282.572 28.3597C282.691 27.6507 282.81 27.0599 282.81 26.4691C282.928 24.5784 282.572 23.0423 281.623 21.8606ZM279.014 26.3509C279.014 26.3509 279.014 26.4691 278.776 26.5872H271.777C271.659 26.5872 271.777 26.3509 271.777 26.3509C272.608 24.4603 274.15 23.2786 276.167 23.2786C277.234 23.2786 277.946 23.5149 278.42 23.9876C278.895 24.4603 279.132 25.1693 279.014 25.9964C279.014 26.1146 279.014 26.2328 279.014 26.3509Z" fill="#333333"/>
<path d="M280.318 40.7672C275.336 40.7672 272.726 39.7037 272.607 39.7037C272.607 39.7037 274.268 40.0582 277.115 40.0582C281.03 40.0582 287.317 39.4674 294.672 36.6314C304.4 32.9683 310.687 27.5326 311.636 23.0423C311.873 21.9788 311.636 21.0335 311.043 20.3245C309.026 17.843 303.095 17.6067 301.315 17.6067C300.841 17.6067 300.604 17.6067 300.604 17.6067L300.485 16.8977C300.485 16.8977 301.79 16.7795 303.451 16.7795C307.01 16.7795 311.636 17.2522 313.771 19.6155C314.602 20.5608 315.076 21.8607 314.839 23.2787C314.246 28.3598 305.705 34.8589 295.265 38.2857C290.046 39.8219 284.945 40.7672 280.318 40.7672Z" fill="#333333"/>
<path d="M137.49 9.80758C137.016 9.33492 136.423 8.98042 135.711 9.09859C134.762 9.09859 133.813 9.68941 132.745 10.8711C131.915 11.9346 131.203 12.9981 130.729 14.0615C130.491 14.6524 130.135 15.4795 129.78 16.6612L128.475 19.4972C128.119 20.088 127.882 21.1515 127.644 22.6877L126.814 25.76V26.2326V26.5871L125.865 28.4778L125.034 29.5413L122.899 31.6683L121.831 32.2591C121.594 32.2591 121.357 32.3772 121.001 32.6136C120.764 32.8499 120.527 32.9681 120.289 32.9681C119.696 32.9681 119.222 32.2591 119.103 30.6048L118.984 30.0139L118.391 29.1868C117.68 28.4778 117.086 28.2414 116.612 28.2414C116.137 28.3596 115.544 28.7141 115.188 29.3049L113.409 32.3772C112.934 32.8499 112.46 33.0862 111.867 33.0862C112.578 30.9593 113.172 29.5413 113.765 28.4778C114.239 27.8869 114.714 27.2961 115.07 26.9416H116.73L117.561 28.0051C117.917 28.4778 118.273 28.5959 118.629 28.4778C118.984 28.3596 119.222 28.2414 119.34 28.0051C119.459 27.7688 119.578 27.5324 119.578 27.178C119.578 26.5871 119.103 25.9963 118.629 25.2873C117.917 24.5783 117.205 24.2238 116.375 23.9875C115.426 23.8693 114.477 23.9875 113.646 24.2238C113.172 24.342 112.697 24.5783 112.341 24.8146C112.104 24.9328 111.985 25.051 111.867 25.2873L111.392 25.76C111.036 25.8781 110.799 26.2326 110.443 26.7053L108.189 32.2591C108.071 32.8499 108.071 33.3226 108.308 33.6771L108.782 34.8587C108.901 35.2132 109.02 35.4496 109.257 35.6859C109.731 36.1586 110.206 36.5131 110.799 36.6312C112.104 36.8675 113.409 36.3949 114.714 35.2132L116.968 33.4407C117.086 33.4407 117.205 33.5589 117.442 33.9134L117.561 34.3861L118.035 34.8587L119.578 36.0404C119.933 36.2767 120.408 36.3949 120.764 36.3949C121.594 36.513 122.306 36.2767 123.136 35.9222L124.085 35.4496L124.916 34.7406C125.39 34.5042 125.628 34.3861 125.865 34.3861C125.865 34.3861 125.983 34.3861 126.102 34.5042V34.7406L126.577 38.7582L127.288 41.7123C127.644 42.5395 128.119 43.1303 128.831 43.603C129.542 44.1938 130.254 44.4302 131.084 44.4302C131.559 43.9575 131.559 43.2485 131.084 42.185C130.61 41.3578 130.373 40.6489 130.373 39.9399L130.254 33.4407C130.135 32.1409 130.254 31.1956 130.491 30.3684C130.729 29.6594 131.084 28.8323 131.796 28.0051L133.457 25.6418L134.881 22.8058L138.558 14.0615C138.914 13.1162 138.914 12.1709 138.795 11.4619C138.202 10.8711 137.846 10.2802 137.49 9.80758ZM132.627 16.6612C132.745 16.0704 132.983 15.5977 133.101 15.3614C133.457 14.6524 134.169 13.8252 134.999 12.9981H135.118V13.4707L134.881 14.2979L132.745 19.7335L131.559 21.9787C131.44 22.4513 131.203 22.6877 131.084 22.8058H130.966V22.6877V22.3332L131.678 19.1427C131.796 18.67 132.034 18.1974 132.152 17.8429L132.627 16.6612Z" fill="#333333"/>
<path d="M108.071 36.0405L107.24 35.0952C106.766 34.3862 106.41 33.4408 106.173 32.2592L105.817 29.0687L104.986 26.4691C104.63 25.8782 104.156 25.5237 103.444 25.2874H101.546L100.478 25.8782C100.123 26.1146 99.7667 26.4691 99.5294 26.7054C99.2922 26.9417 99.0549 27.2962 98.9363 27.8871L98.3432 29.0687C98.1059 28.9505 97.8687 28.5961 97.8687 28.2416V27.7689V27.2962L96.9196 24.6966C96.5637 23.9876 95.9706 23.2786 95.3775 22.6878C94.6657 22.2151 93.8353 21.7424 93.1235 21.6243C92.7676 21.5061 92.2931 21.5061 91.5814 21.6243L90.2764 21.7424C89.6833 21.8606 89.0902 22.2151 88.7343 22.6878L87.6666 24.3421C87.1921 25.0511 86.8362 25.6419 86.4804 25.8782C86.2431 26.1146 86.0058 26.4691 85.6499 26.9417L84.4637 29.5414L83.8705 30.6049C83.6333 31.0775 83.5146 31.9047 83.5146 33.0864C83.5146 34.0317 83.6333 34.7407 83.9892 35.3315C84.4637 36.1587 85.0568 36.6313 86.0058 36.9858C87.1921 37.4585 88.0225 37.5767 88.7343 37.4585C88.9715 37.4585 89.3274 37.2222 89.8019 36.8677L90.751 36.395C91.2255 36.0405 91.5814 35.686 91.7 34.977C92.0559 34.0317 92.0559 32.7319 91.7 31.0775C91.4627 30.014 91.2255 29.1869 91.2255 28.7142C91.2255 27.7689 91.3441 27.0599 91.8186 26.4691L92.1745 25.9964C92.2931 25.8782 92.2931 25.6419 92.1745 25.5237L91.9372 25.0511C91.9372 24.8147 91.9372 24.8147 92.1745 24.8147C92.7676 24.8147 93.2422 24.9329 93.598 25.5237C93.9539 25.9964 94.0726 26.5872 94.1912 27.4144L94.7843 34.0317C94.7843 34.5043 94.9029 34.977 95.1402 35.3315C95.4961 35.9223 95.9706 36.395 96.6824 36.6313C97.3941 36.8677 98.1059 36.7495 98.699 36.5132C99.2922 36.1587 99.7667 35.686 100.123 34.8588L100.597 32.7319C100.716 31.7865 100.953 31.0775 101.309 30.6049L101.665 30.1322H101.783L102.021 30.3685C102.258 30.6049 102.495 30.8412 102.614 31.1957C102.732 31.5502 103.088 32.2592 103.326 33.4408C103.563 34.3862 103.919 35.0952 104.275 35.5678C104.749 36.2768 105.461 36.8677 106.291 37.104C107.122 37.4585 107.952 37.5767 108.782 37.3403V37.2222L108.071 36.0405ZM88.1411 28.3597C88.7343 28.3597 88.9715 28.9505 88.8529 30.2504C88.7343 31.3139 88.497 32.3774 88.1411 33.4408C87.9039 33.9135 87.7853 34.1498 87.548 34.268C87.1921 34.5043 87.0735 34.6225 86.7176 34.5043C86.4803 34.5043 86.3617 34.268 86.3617 33.7953C86.3617 33.4408 86.3617 32.85 86.4804 32.2592L86.9549 30.723C87.3108 29.8959 87.6666 29.0687 88.1411 28.3597Z" fill="#333333"/>
<path d="M46.8582 10.1622C46.2651 9.6895 45.4347 9.09867 44.4856 8.38968C43.8925 8.03518 42.9435 7.56252 41.7572 7.20802C41.0454 6.97169 40.5709 6.85352 40.215 6.73536L38.6729 6.49903C38.1983 6.38086 37.6052 6.2627 37.1307 6.2627H35.5885L32.0297 6.85352C31.4365 6.85352 30.962 6.97169 30.7248 7.32619C30.4875 7.56252 30.2503 8.03518 30.1316 8.38968C30.013 8.86234 29.8944 9.21684 30.013 9.57134C30.1316 9.92584 30.3689 10.1622 30.7248 10.3985C31.1993 10.6348 31.7924 10.6348 32.3856 10.6348L37.368 10.044L41.9944 10.6348C42.5876 10.753 42.9435 10.8712 43.2994 10.9893C43.8925 11.2257 44.6043 11.8165 45.316 12.6436C46.0278 13.4708 46.3837 14.1798 46.2651 15.007C46.1464 15.8341 45.7906 16.425 44.9602 17.1339L43.0621 18.6701C42.1131 19.2609 41.4013 19.4973 40.9268 19.4973L41.2827 18.5519L41.5199 17.6066L41.6386 15.5978L41.9944 14.6525L42.1131 13.7071C42.1131 13.2345 42.1131 12.7618 41.7572 12.2891C41.4013 11.5802 40.9268 10.9893 40.3337 10.8712H39.266C38.9101 10.9893 38.5542 11.2257 38.317 11.462C37.8425 11.9347 37.7238 12.5255 37.6052 13.4708L36.6562 19.2609C36.4189 19.9699 36.1817 20.4426 35.7072 20.6789C35.3513 20.9153 34.8768 20.6789 34.4022 19.8518L33.8091 19.0246C33.5718 18.7883 33.3346 18.6701 32.9787 18.5519C32.3856 18.4338 31.9111 18.5519 31.5552 19.1428C31.1993 19.7336 31.1993 20.3244 31.5552 20.9153C31.7924 21.5061 32.1483 21.9787 32.7415 22.4514C32.9787 22.5696 33.3346 22.8059 33.9277 23.0422L35.114 23.6331C35.5885 23.8694 35.7072 24.4602 35.5885 25.1692C35.5885 25.5237 35.4699 26.2327 35.114 27.178L33.3346 38.8765L32.9787 39.9399C32.8601 40.2944 32.8601 40.6489 33.0973 41.0034C33.4532 41.4761 34.165 41.8306 34.8768 41.8306C35.7072 41.8306 36.3003 41.5943 36.6562 41.0034C37.0121 40.5308 37.1307 39.9399 37.2493 39.1128L37.4866 36.1586C37.6052 34.8588 37.7238 33.7953 37.9611 32.85L38.6729 29.6595C38.7915 28.7142 38.9101 27.6507 38.9101 26.8235C39.0287 25.7601 39.0287 25.1692 39.266 24.6966C39.5033 24.1057 40.0964 23.6331 40.9268 23.3967L43.7739 22.4514C44.367 22.2151 45.1974 21.6242 46.2651 20.9153C47.2141 20.2063 47.9259 19.4973 48.4004 19.0246C49.468 17.7248 49.7053 16.0705 49.2308 14.298C49.2308 12.7618 48.2817 11.3438 46.8582 10.1622Z" fill="#333333"/>
<path d="M82.684 23.3968C82.684 23.0423 82.684 22.6878 82.4468 22.3333C82.2095 21.9788 81.9723 21.7424 81.6164 21.6243C81.2605 21.5061 80.786 21.3879 80.4301 21.3879C80.0742 21.3879 79.7183 21.5061 79.2438 21.7424L78.4134 21.9788C78.1762 22.0969 77.9389 22.2151 77.9389 22.2151L77.583 22.5696L77.1085 22.6878L76.2781 23.9876L76.0408 24.2239C75.9222 24.3421 75.9222 24.4603 75.9222 24.4603L75.685 25.0511C75.3291 25.5237 75.0918 25.8782 75.0918 26.1146C75.0918 26.4691 75.0918 26.8236 75.0918 27.2962C75.2105 28.1234 75.4477 28.9505 76.0408 29.8959L77.583 32.141C78.1762 33.0864 78.532 33.9135 78.4134 34.6225C78.2948 35.0952 77.8203 35.5678 76.9899 35.8042L75.0918 35.9223L73.9055 35.5678C73.431 35.4497 73.0751 35.5678 72.8379 35.8042C72.8379 36.0405 72.8379 36.395 72.8379 36.7495L73.9055 38.522C74.1428 38.8765 74.7359 39.1128 75.5663 39.231C77.1085 39.3491 78.4134 39.231 79.5997 38.8765C80.3115 38.6401 80.9046 38.2856 81.3791 37.813C81.8536 37.2222 82.2095 36.7495 82.3281 35.9223C82.5654 34.8588 82.0909 33.559 81.0232 32.2592L79.9556 30.6049C79.4811 30.014 79.2438 29.4232 79.2438 28.7142C79.1252 27.7689 79.2438 27.0599 79.837 26.3509C80.0742 25.8782 80.6673 25.4056 81.4977 24.8147C82.2095 24.4602 82.684 23.8694 82.684 23.3968Z" fill="#333333"/>
<path d="M74.9726 25.2874C75.0913 25.1692 75.0913 24.8147 74.9726 24.4602C74.854 23.8694 74.7354 23.6331 74.4981 23.5149C73.3118 23.0423 72.3628 22.9241 71.5324 23.0423C70.9393 23.0423 70.2275 23.5149 69.5157 24.1057L67.7363 25.7601L66.3128 27.5326C65.8383 28.3597 65.1265 28.8324 64.652 29.0687L64.2961 28.1234C64.2961 28.0052 64.1775 27.5326 64.1775 27.0599C64.1775 26.4691 63.8216 25.8782 63.3471 25.5237C62.8726 25.0511 62.398 24.9329 61.8049 24.8147C61.2118 24.6966 60.6186 24.8147 60.2627 25.0511L59.551 25.7601L58.9578 26.5872L57.6529 28.0052C57.1784 28.4779 56.2294 29.6595 54.9245 31.1957L53.0264 33.559C52.3147 34.3862 51.7215 34.7407 51.1284 34.5043C50.5352 34.3862 50.1794 33.9135 49.9421 33.0863C49.8235 32.2592 49.9421 31.7865 50.4166 31.3139L54.5686 29.305L56.4666 28.0052L57.4157 27.1781C57.5343 26.3509 57.297 25.5237 56.8225 24.6966C56.348 23.9876 55.7549 23.2786 55.0431 22.8059C54.2127 22.2151 53.5009 21.9788 52.5519 21.8606C51.6029 21.8606 50.7725 21.9788 49.9421 22.4514C48.3999 23.3968 47.2137 24.9329 46.6205 26.8236L46.2646 27.8871L46.146 28.1234L45.9087 28.2415H44.7225L44.0107 28.3597C43.8921 28.4779 43.7734 28.596 43.7734 28.8324C43.7734 29.1869 43.7734 29.5414 44.0107 29.8959L44.8411 30.8412L45.5529 31.432C45.7901 31.6684 45.9087 32.0229 46.0274 32.6137L46.6205 33.7953C47.4509 35.5678 48.2813 36.7495 49.349 37.2221C50.6539 37.9311 52.0774 38.0493 53.2637 37.6948C54.2127 37.4585 55.1617 36.7495 56.1108 35.8042L58.4833 32.9682C59.4323 31.7865 60.3814 30.9594 61.2118 30.4867L61.5677 32.6137L61.6863 34.1498L61.5677 35.5678C61.5677 36.1587 61.6863 36.6313 61.8049 36.9858C62.1608 37.6948 62.7539 38.0493 63.3471 38.2856C64.0588 38.4038 64.652 38.0493 65.2451 37.3403L66.3128 34.8588L67.8549 32.7318L69.1599 30.014C69.6344 28.9505 70.2275 28.1234 70.8206 27.5326C71.2952 26.9417 71.8883 26.4691 72.7187 26.1146L74.3795 25.4056L74.9726 25.2874ZM54.0941 25.2874C54.2127 25.6419 54.0941 25.8782 54.0941 26.1146C54.0941 26.5872 53.7382 26.9417 53.1451 27.2962L50.7725 28.8324C50.298 29.0687 49.9421 29.1869 49.7048 29.1869H49.4676C49.349 29.1869 49.349 29.1869 49.349 28.9505L49.4676 28.4779C49.4676 28.2415 49.5862 28.0052 49.8235 27.7689L50.8911 26.2327C51.3656 25.5237 51.7215 24.9329 52.196 24.6966C52.7892 24.2239 53.3823 24.1057 53.8568 24.5784C53.8568 24.6966 53.9755 25.0511 54.0941 25.2874Z" fill="#333333"/>
<path d="M382.931 28.3598C383.287 33.0865 385.778 35.2135 390.286 35.2135C394.438 35.2135 397.167 32.8501 397.878 29.187C397.878 29.187 397.997 28.478 397.997 27.8872C397.997 27.6508 397.997 27.4145 397.997 27.2963C397.997 25.1694 397.285 23.2787 396.099 21.9789C394.913 20.6791 393.252 19.8519 391.235 19.8519C388.625 19.8519 387.439 21.0336 386.727 21.9789V13.3528C386.727 13.2346 386.609 13.1165 386.49 13.1165H383.168C383.05 13.1165 382.931 13.2346 382.931 13.3528V28.3598ZM390.286 23.515C392.777 23.515 394.201 25.5239 394.201 27.6508C394.201 30.0142 392.777 31.7866 390.286 31.7866C387.795 31.7866 386.49 30.1323 386.49 27.6508C386.49 25.4057 387.795 23.515 390.286 23.515Z" fill="#333333"/>
<path d="M399.658 34.2681C399.658 34.3863 399.777 34.5045 399.895 34.5045H403.098C403.217 34.5045 403.336 34.3863 403.336 34.2681V13.471C403.336 13.3528 403.217 13.2346 403.098 13.2346H399.895C399.777 13.2346 399.658 13.3528 399.658 13.471V34.2681Z" fill="#333333"/>
<path d="M433.585 20.2063H430.264C430.145 20.2063 430.027 20.3245 429.908 20.4426L426.586 29.7777C426.586 29.8959 426.468 29.8959 426.468 29.7777L423.146 20.4426C423.146 20.3245 422.909 20.2063 422.79 20.2063H419.35C419.231 20.2063 419.113 20.3245 419.113 20.4426V20.5608L424.451 34.268C424.451 34.3862 424.688 34.5044 424.807 34.5044H428.247C428.366 34.5044 428.484 34.3862 428.603 34.268L433.823 20.4426C433.823 20.3245 433.823 20.2063 433.585 20.2063Z" fill="#333333"/>
<path d="M412.707 19.8519C410.572 19.8519 408.674 20.5609 407.25 21.8607C405.827 23.1605 405.234 25.0512 405.234 27.2963C405.234 29.5415 405.827 31.4322 407.25 32.732C408.674 34.0318 410.572 34.7408 412.707 34.7408C414.961 34.7408 416.741 33.9136 418.401 32.023C418.52 31.9048 418.52 31.7866 418.401 31.6685L416.147 29.896C416.029 29.7778 415.91 29.7778 415.792 29.896C414.961 30.9595 414.012 31.6685 412.351 31.6685C410.453 31.6685 409.148 30.4868 408.911 28.478H418.401H418.994C419.113 28.478 419.232 28.3598 419.232 28.2417V27.769V27.5327C419.232 25.0512 418.52 23.1605 417.334 21.8607C416.147 20.5609 414.724 19.8519 412.707 19.8519ZM415.436 25.8784H408.911C409.148 23.9877 410.453 22.806 412.233 22.806C414.368 22.6879 415.436 23.8695 415.436 25.8784C415.554 25.8784 415.554 25.8784 415.436 25.8784ZM438.687 20.2064H435.484C435.365 20.2064 435.247 20.3246 435.247 20.4427V34.2681C435.247 34.3863 435.365 34.5045 435.484 34.5045H438.687C438.805 34.5045 438.924 34.3863 438.924 34.2681V20.4427C438.924 20.3246 438.805 20.2064 438.687 20.2064ZM466.92 17.6068H469.411C469.53 17.6068 469.767 17.4886 469.767 17.4886L473.801 13.471C473.919 13.3528 473.801 13.3528 473.682 13.3528H469.886C469.767 13.3528 469.649 13.3528 469.649 13.3528C469.649 13.3528 469.53 13.471 469.53 13.5891L466.802 17.6068C466.802 17.4886 466.802 17.6068 466.92 17.6068ZM374.865 19.8519C372.611 19.8519 370.713 20.5609 369.171 22.0971C369.171 22.2152 369.052 22.3334 369.171 22.3334L370.831 23.9877C370.95 24.1059 371.069 24.1059 371.187 23.9877C372.136 23.1605 373.204 22.6879 374.509 22.6879C376.407 22.6879 377.593 23.515 377.593 25.2875V25.5239H376.763C374.983 25.5239 372.73 25.642 370.95 26.2329C369.171 26.9419 367.984 28.1235 367.984 30.4868C367.984 33.3228 370.357 34.7408 372.967 34.7408C374.865 34.7408 376.407 34.0318 377.475 32.4956V33.2046C377.593 33.7955 377.831 34.3863 378.661 34.3863H380.559C380.678 34.3863 380.796 34.2681 380.796 34.15V33.5591V26.2329C380.796 25.2875 380.796 23.6332 380.084 22.3334C379.491 21.0336 377.83 19.8519 374.865 19.8519ZM377.356 28.8325C377.356 30.7232 376.288 31.9048 373.916 32.023C373.323 32.023 372.967 31.9048 372.611 31.5503C372.136 31.1958 371.899 30.8413 371.899 30.2505C371.899 29.3052 372.492 28.8325 373.56 28.478C374.628 28.2417 375.932 28.1235 376.881 28.1235H377.593V28.8325H377.356ZM456.837 13.2346C455.532 13.2346 454.583 14.1799 454.583 15.3616C454.583 16.4251 455.532 17.4886 456.837 17.4886C458.142 17.4886 459.091 16.5433 459.091 15.3616C459.091 14.1799 458.142 13.2346 456.837 13.2346ZM489.46 21.6244C488.629 20.5609 487.324 19.8519 485.426 19.8519C483.172 19.8519 481.867 20.9154 481.156 22.2152V20.4427C481.156 20.3246 481.037 20.2064 480.918 20.2064H477.834C477.715 20.2064 477.597 20.3246 477.597 20.4427V34.2681C477.597 34.3863 477.715 34.5045 477.834 34.5045H481.037C481.156 34.5045 481.274 34.3863 481.274 34.2681V26.7055C481.274 24.8149 482.105 23.2787 484.477 23.1605C485.663 23.1605 486.257 23.7514 486.613 24.5785C486.968 25.4057 486.968 26.4692 486.968 27.1782V33.5591V34.2681C486.968 34.3863 487.087 34.5045 487.206 34.5045H490.409C490.527 34.5045 490.646 34.3863 490.646 34.2681V25.5239C490.527 24.1059 490.29 22.6879 489.46 21.6244ZM467.988 19.8519C465.853 19.8519 464.192 20.5609 462.768 21.8607C461.345 23.1605 460.752 25.0512 460.752 27.2963C460.752 29.5415 461.345 31.4322 462.768 32.732C464.192 34.0318 465.853 34.7408 467.988 34.7408C470.123 34.7408 471.903 34.0318 473.208 32.732C474.631 31.4322 475.224 29.5415 475.224 27.2963C475.224 25.0512 474.631 23.1605 473.208 21.8607C471.903 20.6791 470.242 19.8519 467.988 19.8519ZM467.988 31.4322C465.497 31.4322 464.429 29.4233 464.429 27.2963C464.429 25.1694 465.497 23.1605 467.988 23.1605C470.598 23.1605 471.547 25.1694 471.547 27.2963C471.665 29.5415 470.598 31.4322 467.988 31.4322ZM437.026 13.2346C435.721 13.2346 434.772 14.1799 434.772 15.3616C434.772 16.4251 435.721 17.4886 437.026 17.4886C438.331 17.4886 439.28 16.5433 439.28 15.3616C439.28 14.1799 438.331 13.2346 437.026 13.2346ZM458.498 20.2064H455.295C455.176 20.2064 455.057 20.3246 455.057 20.4427V34.2681C455.057 34.3863 455.176 34.5045 455.295 34.5045H458.498C458.616 34.5045 458.735 34.3863 458.735 34.2681V20.4427C458.735 20.3246 458.616 20.2064 458.498 20.2064ZM449.007 26.1147C448.058 25.8784 447.109 25.7602 446.398 25.5239C445.686 25.2875 445.33 24.933 445.33 24.3422C445.33 23.8695 445.567 23.515 445.923 23.2787C446.279 23.0424 446.753 22.9242 447.228 22.9242C448.414 22.9242 449.245 23.3969 449.838 24.224C449.956 24.3422 450.075 24.3422 450.194 24.224L452.329 22.3334C452.448 22.2152 452.448 22.0971 452.329 21.9789C451.143 20.5609 449.245 19.9701 447.347 19.9701C445.923 19.9701 444.499 20.3246 443.432 21.0336C442.364 21.7426 441.652 22.9242 441.652 24.5785C441.652 27.2963 443.669 28.1235 445.567 28.5962C446.516 28.8325 447.465 28.9507 448.177 29.3052C448.889 29.5415 449.363 29.896 449.363 30.605C449.363 31.0777 449.007 31.5503 448.652 31.7866C448.177 32.023 447.584 32.1411 447.109 32.1411C445.686 32.1411 444.855 31.4321 443.906 30.605C443.788 30.4868 443.669 30.4868 443.55 30.605L441.534 32.3775L441.415 32.4956C441.297 32.6138 441.297 32.732 441.415 32.8501L441.771 33.2046C443.195 34.5045 444.855 34.9771 446.872 34.9771C448.296 34.9771 449.838 34.6226 451.024 33.9136C452.21 33.2046 453.041 32.023 453.041 30.3687C452.922 27.4145 450.905 26.5874 449.007 26.1147Z" fill="#333333"/>
<path d="M360.155 16.5433C362.171 16.6614 363.239 17.2523 364.663 19.0247C364.781 19.2611 364.9 19.2611 365.137 19.1429L367.391 17.4886C367.628 17.3704 367.628 17.1341 367.51 17.0159C365.968 14.5344 363.832 13.5891 362.171 13.2346C361.816 13.1165 361.104 13.1165 360.392 13.1165C357.426 13.1165 355.172 14.1799 353.393 16.1888C351.614 18.0794 350.783 20.9154 350.783 24.224C350.783 27.4145 351.614 30.2505 353.393 32.1411C355.172 34.0318 357.545 35.0953 360.392 35.0953C363.121 35.0953 365.493 34.15 367.154 31.7866C367.273 31.5503 367.273 31.4321 367.154 31.314L364.663 29.3052C364.544 29.187 364.425 29.3052 364.307 29.3052C363.121 30.9595 361.816 31.4322 360.392 31.4322C356.596 31.4322 354.461 28.2417 354.461 23.8695C354.342 20.0882 356.24 16.5433 360.155 16.5433Z" fill="#333333"/>
<path d="M3.55884 59.9102H168.333V67.0001H0V63.4551C0 61.4463 1.54217 59.9102 3.55884 59.9102Z" fill="#00B0EA"/>
<path d="M501.441 59.9102H336.667V67.0001H505V63.4551C505 61.4463 503.34 59.9102 501.441 59.9102Z" fill="#BD2A37"/>
<path d="M168.689 0H167.978V48.3298H168.689V0Z" fill="#6E6E70"/>
<path d="M337.022 0H336.311V48.3298H337.022V0Z" fill="#6E6E70"/>
</svg>
